HIERARCHY
ROOT Hips
{
	OFFSET 0.00000 0.00000 0.00000
	CHANNELS 6 Xposition Yposition Zposition Zrotation Yrotation Xrotation 
	JOINT LHipJoint
	{
		OFFSET 0 0 0
		CHANNELS 3 Zrotation Yrotation Xrotation
		JOINT LeftHip
		{
			OFFSET 1.46561 -1.72757 0.83774
			CHANNELS 3 Zrotation Yrotation Xrotation
			JOINT LeftKnee
			{
				OFFSET 2.48915 -6.83890 0.00000
				CHANNELS 3 Zrotation Yrotation Xrotation
				JOINT LeftAnkle
				{
					OFFSET 2.60555 -7.15868 0.00000
					CHANNELS 3 Zrotation Yrotation Xrotation
					JOINT LeftToe
					{
						OFFSET 0.19248 -0.52884 2.26738
						CHANNELS 3 Zrotation Yrotation Xrotation
						End Site
						{
							OFFSET 0.00000 -0.00000 1.17015
						}
					}
				}
			}
		}
	}
	JOINT RHipJoint
	{
		OFFSET 0 0 0
		CHANNELS 3 Zrotation Yrotation Xrotation
		JOINT RightHip
		{
			OFFSET -1.46918 -1.72757 0.83774
			CHANNELS 3 Zrotation Yrotation Xrotation
			JOINT RightKnee
			{
				OFFSET -2.49034 -6.84216 0.00000
				CHANNELS 3 Zrotation Yrotation Xrotation
				JOINT RightAnkle
				{
					OFFSET -2.65971 -7.30750 0.00000
					CHANNELS 3 Zrotation Yrotation Xrotation
					JOINT RightToe
					{
						OFFSET -0.19227 -0.52827 2.30785
						CHANNELS 3 Zrotation Yrotation Xrotation
						End Site
						{
							OFFSET -0.00000 -0.00000 1.18972
						}
					}
				}
			}
		}
	}
	JOINT lowerback
	{
		OFFSET 0 0 0
		CHANNELS 3 Zrotation Yrotation Xrotation
		JOINT Chest
		{
			OFFSET 0.02432 2.19909 -0.28000
			CHANNELS 3 Zrotation Yrotation Xrotation
			JOINT Chest2
			{
				OFFSET 0.03714 2.21816 -0.15261
				CHANNELS 3 Zrotation Yrotation Xrotation
				JOINT lowerneck
				{
					OFFSET 0 0 0
					CHANNELS 3 Zrotation Yrotation Xrotation
					JOINT Neck
					{
						OFFSET -0.01896 1.56165 0.21681
						CHANNELS 3 Zrotation Yrotation Xrotation
						JOINT Head
						{
							OFFSET 0.02744 1.56009 0.06764
							CHANNELS 3 Zrotation Yrotation Xrotation
							End Site
							{
								OFFSET 0.01212 1.60574 0.00298
							}
						}
					}
				}
				JOINT LeftCollar
				{
					OFFSET 0 0 0
					CHANNELS 3 Zrotation Yrotation Xrotation
					JOINT LeftShoulder
					{
						OFFSET 3.05595 1.48048 -0.60794
CHANNELS 3 Zrotation Xrotation Yrotation
						JOINT LeftElbow
						{
OFFSET 0 -5.206070 -0.000000
CHANNELS 3 Zrotation Xrotation Yrotation
							JOINT LeftWrist
							{
OFFSET 0 -3.399610 0.000000
CHANNELS 3 Zrotation Xrotation Yrotation
								JOINT lhand
								{
									OFFSET 0 0 0
CHANNELS 3 Zrotation Xrotation Yrotation
									JOINT LFingers
									{
OFFSET 0 -0.519690 0.000000
CHANNELS 3 Zrotation Xrotation Yrotation
										End Site
										{
OFFSET 0 -0.418990 0.000000
										}
									}
								}
								JOINT LThumb
								{
OFFSET 0 0.000000 0.000000
CHANNELS 3 Zrotation Xrotation Yrotation
									End Site
									{
OFFSET 0 -0.425390 0.425390
									}
								}
							}
						}
					}
				}
				JOINT RightCollar
				{
					OFFSET 0 0 0
					CHANNELS 3 Zrotation Yrotation Xrotation
					JOINT RightShoulder
					{
						OFFSET -2.99052 1.57608 -0.69102
CHANNELS 3 Zrotation Xrotation Yrotation
						JOINT RightElbow
						{
OFFSET 0 -5.322140 0.000000
CHANNELS 3 Zrotation Xrotation Yrotation
							JOINT RightWrist
							{
OFFSET 0 -3.512080 0.000000
CHANNELS 3 Zrotation Xrotation Yrotation
								JOINT rhand
								{
									OFFSET 0 0 0
CHANNELS 3 Zrotation Xrotation Yrotation
									JOINT RFingers
									{
OFFSET 0 -0.586680 0.000000
CHANNELS 3 Zrotation Xrotation Yrotation
										End Site
										{
OFFSET 0 -0.473000 0.000000
										}
									}
								}
								JOINT RThumb
								{
OFFSET 0 0.000000 0.000000
CHANNELS 3 Zrotation Xrotation Yrotation
									End Site
									{
OFFSET 0 -0.480220 0.480220
									}
								}
							}
						}
					}
				}
			}
		}
	}
}
MOTION
Frames: 13
Frame Time: 0.008333333333333333
0.589700 17.494100 -13.613000 -1.966800 -1.429700 5.649800 0.000000 0.000000 0.000000 -17.098100 2.917300 -12.032800 1.147500 6.802000 19.130000 0.446100 3.437200 -14.348100 0.095500 -1.992700 -5.485500 0.000000 0.000000 0.000000 20.334500 0.446600 -11.402100 -1.258900 -7.112600 20.049400 -0.701500 2.950100 -15.095700 -0.248400 -3.206900 8.855400 0.485500 -0.026000 -3.342100 1.502600 -0.101200 1.165000 1.266900 -0.056200 3.073600 -2.075900 -0.051900 -15.284800 1.033200 0.219800 15.478100 0.701000 0.078100 7.262700 0.000000 -0.000000 0.000000 1.626700 -7.047900 -26.123400 8.811800 -14.860000 1.151400 24.221900 -1.888900 2.834900 0.000000 0.000000 0.000000 -7.125000 0.000000 0.000000 -1.817800 26.870700 -0.800300 0.000000 -0.000000 0.000000 -2.213000 -6.059800 10.176800 -12.502100 -20.553400 -2.275500 -20.362300 42.358600 24.583800 0.000000 0.000000 0.000000 7.125000 0.000000 -0.000000 9.860000 55.719700 -2.611900
0.590545 17.493818 -13.613527 -1.993978 -1.426179 5.653719 0.000000 0.000000 0.000000 -17.070918 2.912668 -12.051341 1.149882 6.808764 19.149992 0.446809 3.434505 -14.355129 0.094490 -1.982547 -5.457514 0.000000 0.000000 0.000000 20.361373 0.447663 -11.404041 -1.257480 -7.108887 20.038351 -0.700572 2.944073 -15.086250 -0.246553 -3.194910 8.821813 0.531760 -0.020902 -3.352575 1.502317 -0.096721 1.167712 1.240981 -0.053038 3.082177 -2.058919 -0.059420 -15.296309 1.033787 0.205638 15.500182 0.696977 0.072368 7.272103 0.000000 0.000000 0.000000 1.641822 -7.079060 -26.200364 8.830223 -14.889380 1.156056 24.165461 -1.896849 2.724732 0.000000 0.000000 0.000000 -7.125000 0.000000 0.000000 -1.861236 26.992637 -0.814088 0.000000 0.000000 0.000000 -2.207617 -6.076825 10.200218 -12.503927 -20.556045 -2.276109 -20.370169 42.355182 24.608607 0.000000 0.000000 0.000000 7.125000 0.000000 0.000000 9.862860 55.746522 -2.619110
0.591090 17.493802 -13.613818 -1.968060 -1.407764 5.651259 0.000000 0.000000 0.000000 -17.100804 2.898850 -12.045051 1.149754 6.808526 19.149297 0.446936 3.427833 -14.353310 0.095580 -1.993975 -5.489093 0.000000 0.000000 0.000000 20.330342 0.417046 -11.419915 -1.259607 -7.114611 20.055398 -0.701408 2.963359 -15.093134 -0.247685 -3.202377 8.842627 0.518347 -0.018738 -3.349777 1.493869 -0.092864 1.164233 1.239943 -0.051310 3.077044 -2.070498 -0.068700 -15.318961 1.053352 0.192539 15.548052 0.704152 0.067054 7.291887 0.000000 0.000000 0.000000 1.648911 -7.098001 -26.265312 8.831594 -14.891603 1.156457 24.135495 -1.924759 2.803587 0.000000 0.000000 0.000000 -7.125000 0.000000 0.000000 -1.884324 26.906770 -0.827628 0.000000 0.000000 0.000000 -2.209143 -6.083814 10.176379 -12.501856 -20.553020 -2.275389 -20.387975 42.378886 24.663246 0.000000 0.000000 0.000000 7.125000 0.000000 0.000000 9.868657 55.805743 -2.634955
0.591662 17.492711 -13.613981 -1.980295 -1.406437 5.642826 0.000000 0.000000 0.000000 -17.088919 2.912306 -12.040558 1.149757 6.808451 19.149153 0.447019 3.424421 -14.351710 0.096697 -2.005664 -5.521409 0.000000 0.000000 0.000000 20.341846 0.422368 -11.419180 -1.261757 -7.120410 20.072547 -0.702170 2.956035 -15.102202 -0.245557 -3.188485 8.804008 0.540608 -0.017405 -3.347265 1.495540 -0.092078 1.166579 1.229174 -0.050521 3.077997 -2.077238 -0.069701 -15.323791 1.072908 0.189142 15.577151 0.711409 0.066705 7.302264 0.000000 0.000000 0.000000 1.654250 -7.121211 -26.283310 8.871710 -14.955719 1.166793 23.920465 -1.614424 2.284103 0.000000 0.000000 0.000000 -7.125000 0.000000 0.000000 -2.051109 27.479638 -0.873726 0.000000 0.000000 0.000000 -2.210970 -6.105162 10.167613 -12.489902 -20.535253 -2.271240 -20.405665 42.394805 24.603873 0.000000 0.000000 0.000000 7.125000 0.000000 0.000000 9.823673 55.749011 -2.609226
0.592280 17.491948 -13.614344 -1.982261 -1.402146 5.638794 0.000000 0.000000 0.000000 -17.088988 2.918228 -12.035066 1.148992 6.806339 19.142890 0.446764 3.422967 -14.347815 0.097969 -2.018671 -5.557269 0.000000 0.000000 0.000000 20.341159 0.425811 -11.428196 -1.264846 -7.128841 20.097622 -0.703225 2.955895 -15.114303 -0.244612 -3.182525 8.787471 0.553947 -0.014971 -3.346107 1.493615 -0.089462 1.168213 1.219907 -0.048923 3.078944 -2.081051 -0.073590 -15.336980 1.086716 0.182381 15.608769 0.715987 0.064415 7.314947 0.000000 0.000000 0.000000 1.660359 -7.136339 -26.365654 8.901905 -15.003899 1.174568 23.869657 -1.605478 2.054178 0.000000 0.000000 0.000000 -7.125000 0.000000 0.000000 -2.092006 27.731741 -0.878738 0.000000 0.000000 0.000000 -2.212241 -6.123078 10.166444 -12.485174 -20.528197 -2.269567 -20.421011 42.409957 24.604052 0.000000 0.000000 0.000000 7.125000 0.000000 0.000000 9.807781 55.752282 -2.605698
0.592870 17.491230 -13.614825 -1.983666 -1.399604 5.634813 0.000000 0.000000 0.000000 -17.089590 2.925516 -12.031077 1.148530 6.804979 19.138846 0.446655 3.421479 -14.345113 0.099251 -2.031558 -5.592858 0.000000 0.000000 0.000000 20.339794 0.433347 -11.435279 -1.267872 -7.136900 20.121666 -0.704206 2.953783 -15.125817 -0.243965 -3.178298 8.775676 0.566574 -0.012283 -3.343438 1.491544 -0.086358 1.170111 1.210904 -0.047089 3.079290 -2.084476 -0.077187 -15.349878 1.099047 0.176231 15.637257 0.720062 0.062298 7.326582 0.000000 0.000000 0.000000 1.665058 -7.147376 -26.458470 8.931855 -15.051686 1.182365 23.866985 -1.670263 1.873497 0.000000 0.000000 0.000000 -7.125000 0.000000 0.000000 -2.095719 27.929167 -0.870595 0.000000 0.000000 0.000000 -2.213876 -6.140622 10.168233 -12.482098 -20.523648 -2.268484 -20.432988 42.425546 24.600443 0.000000 0.000000 0.000000 7.125000 0.000000 0.000000 9.793629 55.751090 -2.601576
0.593470 17.490630 -13.615370 -1.983897 -1.398784 5.631323 0.000000 0.000000 0.000000 -17.091647 2.934668 -12.027748 1.147875 6.803126 19.133341 0.446546 3.418274 -14.341569 0.100233 -2.042089 -5.621887 0.000000 0.000000 0.000000 20.336974 0.442998 -11.440842 -1.270544 -7.144208 20.143261 -0.705079 2.951435 -15.135852 -0.243908 -3.178011 8.774764 0.577598 -0.009231 -3.340331 1.489202 -0.082707 1.171479 1.202560 -0.045072 3.078859 -2.086274 -0.081001 -15.357918 1.107886 0.169963 15.659682 0.722682 0.059956 7.335424 0.000000 0.000000 0.000000 1.668552 -7.155129 -26.545794 8.956848 -15.091630 1.188859 23.901072 -1.781151 1.774934 0.000000 0.000000 0.000000 -7.125000 0.000000 0.000000 -2.070391 28.036430 -0.854800 0.000000 0.000000 0.000000 -2.216106 -6.156115 10.173832 -12.480513 -20.521297 -2.267938 -20.445137 42.441189 24.588793 0.000000 0.000000 0.000000 7.125000 0.000000 0.000000 9.775818 55.741729 -2.594551
0.594142 17.490211 -13.615852 -1.980523 -1.398852 5.627313 0.000000 0.000000 0.000000 -17.098033 2.945174 -12.024265 1.147221 6.801290 19.127908 0.446563 3.412261 -14.338333 0.100852 -2.048361 -5.639215 0.000000 0.000000 0.000000 20.329888 0.449298 -11.445082 -1.272799 -7.150381 20.161708 -0.705842 2.952088 -15.144217 -0.244379 -3.181161 8.783478 0.585223 -0.005944 -3.336791 1.486207 -0.078513 1.171548 1.195451 -0.042812 3.076885 -2.087416 -0.085098 -15.358727 1.113182 0.163640 15.676861 0.723979 0.057322 7.341277 0.000000 0.000000 0.000000 1.670520 -7.158836 -26.621617 8.974635 -15.120009 1.193472 23.959778 -1.915973 1.757033 0.000000 0.000000 0.000000 -7.125000 0.000000 0.000000 -2.025157 28.055157 -0.835194 0.000000 0.000000 0.000000 -2.220014 -6.168147 10.182048 -12.479532 -20.519880 -2.267611 -20.457289 42.456824 24.571426 0.000000 0.000000 0.000000 7.125000 0.000000 0.000000 9.755484 55.726525 -2.585457
0.594833 17.489956 -13.616216 -1.973779 -1.398423 5.622122 0.000000 0.000000 0.000000 -17.108156 2.955535 -12.019943 1.146639 6.799546 19.122855 0.446816 3.402976 -14.335353 0.100928 -2.048430 -5.639450 0.000000 0.000000 0.000000 20.319039 0.450556 -11.447742 -1.274654 -7.155401 20.176659 -0.706605 2.955496 -15.151848 -0.245249 -3.186639 8.798751 0.588626 -0.003213 -3.331173 1.483297 -0.074836 1.169813 1.190748 -0.040846 3.071817 -2.088682 -0.089024 -15.352547 1.115482 0.157966 15.690827 0.724416 0.054669 7.344847 0.000000 0.000000 0.000000 1.670567 -7.161231 -26.660363 8.984055 -15.134979 1.195954 23.991815 -1.990708 1.783167 0.000000 0.000000 0.000000 -7.125000 0.000000 0.000000 -2.000160 28.026197 -0.826269 0.000000 0.000000 0.000000 -2.226071 -6.175911 10.193582 -12.478912 -20.518967 -2.267356 -20.469927 42.469961 24.545272 0.000000 0.000000 0.000000 7.125000 0.000000 0.000000 9.730658 55.702514 -2.573157
0.595568 17.489819 -13.616462 -1.965228 -1.397632 5.615345 0.000000 0.000000 0.000000 -17.120087 2.965159 -12.013770 1.146175 6.798126 19.118760 0.447143 3.393322 -14.333951 0.100657 -2.045709 -5.631915 0.000000 0.000000 0.000000 20.306345 0.447823 -11.448219 -1.276155 -7.159440 20.188557 -0.707287 2.960232 -15.158912 -0.246068 -3.192176 8.814134 0.590317 -0.001302 -3.323821 1.480572 -0.072053 1.167334 1.187041 -0.039426 3.065088 -2.088208 -0.091866 -15.344802 1.113141 0.154166 15.705640 0.723202 0.052540 7.348440 0.000000 0.000000 0.000000 1.669670 -7.162630 -26.679999 8.988459 -15.142062 1.197130 23.996030 -2.019542 1.797798 0.000000 0.000000 0.000000 -7.125000 0.000000 0.000000 -1.996751 28.010134 -0.825600 0.000000 0.000000 0.000000 -2.234453 -6.181638 10.211504 -12.478151 -20.517826 -2.267057 -20.482306 42.477057 24.513946 0.000000 0.000000 0.000000 7.125000 0.000000 0.000000 9.703922 55.673126 -2.559071
0.596331 17.489620 -13.616680 -1.957480 -1.394795 5.608060 0.000000 0.000000 0.000000 -17.130945 2.971398 -12.006830 1.145920 6.797539 19.116928 0.447561 3.384758 -14.334161 0.100239 -2.041774 -5.621215 0.000000 0.000000 0.000000 20.294815 0.442873 -11.447028 -1.277302 -7.162534 20.197712 -0.707941 2.963354 -15.165870 -0.246470 -3.194813 8.821658 0.593124 -0.000189 -3.315558 1.478027 -0.070518 1.164466 1.182974 -0.038569 3.057409 -2.088270 -0.094644 -15.339353 1.110246 0.150805 15.724437 0.721998 0.050577 7.353698 0.000000 0.000000 0.000000 1.668598 -7.161718 -26.696101 8.991714 -15.147247 1.197931 23.982677 -2.026514 1.778185 0.000000 0.000000 0.000000 -7.125000 0.000000 0.000000 -2.007238 28.031778 -0.828936 0.000000 0.000000 0.000000 -2.243573 -6.185575 10.236266 -12.479262 -20.519493 -2.267451 -20.489989 42.476377 24.486854 0.000000 0.000000 0.000000 7.125000 0.000000 0.000000 9.683974 55.647165 -2.547585
0.596995 17.489402 -13.616997 -1.952338 -1.391525 5.601153 0.000000 0.000000 0.000000 -17.138643 2.975668 -12.002134 1.146098 6.797797 19.117792 0.447897 3.377852 -14.334398 0.100002 -2.039119 -5.613754 0.000000 0.000000 0.000000 20.286660 0.440913 -11.444123 -1.278292 -7.165081 20.205342 -0.708595 2.962013 -15.173045 -0.246698 -3.196091 8.825076 0.598457 0.000098 -3.307164 1.475916 -0.070103 1.162316 1.177840 -0.038203 3.050552 -2.086118 -0.096784 -15.340586 1.105042 0.148318 15.748512 0.719718 0.048913 7.361836 0.000000 0.000000 0.000000 1.670087 -7.160906 -26.713862 8.993487 -15.150080 1.198397 23.966524 -2.030370 1.753191 0.000000 0.000000 0.000000 -7.125000 0.000000 0.000000 -2.020002 28.059290 -0.832870 0.000000 0.000000 0.000000 -2.252333 -6.191354 10.267457 -12.481383 -20.522675 -2.268194 -20.495261 42.469754 24.465460 0.000000 0.000000 0.000000 7.125000 0.000000 0.000000 9.669111 55.626356 -2.538667
0.597857 17.489284 -13.617225 -1.950251 -1.386758 5.595148 0.000000 0.000000 0.000000 -17.143205 2.975755 -11.999484 1.146449 6.799039 19.121309 0.448100 3.374892 -14.334451 0.100016 -2.039413 -5.614581 0.000000 0.000000 0.000000 20.281779 0.440886 -11.440946 -1.279057 -7.167255 20.211850 -0.709133 2.956447 -15.179815 -0.246284 -3.193585 8.818089 0.608692 0.000043 -3.301532 1.473336 -0.070515 1.163098 1.169413 -0.038233 3.048094 -2.086223 -0.099055 -15.351821 1.103716 0.145636 15.778405 0.719216 0.047410 7.373682 0.000000 0.000000 0.000000 1.674401 -7.164527 -26.730984 8.993151 -15.149518 1.198292 23.950378 -2.028679 1.725190 0.000000 0.000000 0.000000 -7.125000 0.000000 0.000000 -2.032799 28.090073 -0.836615 0.000000 0.000000 0.000000 -2.259591 -6.203386 10.299176 -12.483431 -20.525688 -2.268949 -20.495835 42.462828 24.450196 0.000000 0.000000 0.000000 7.125000 0.000000 0.000000 9.661783 55.610971 -2.533124
